{"glyphs":{":":{"x_min":0,"x_max":221,"ha":221,"o":""},"$":{"x_min":0,"x_max":479,"ha":479,"o":"m 72 259 l 197 259 q 197 201 208 188 q 220 175 242 175 q 287 175 287 227 q 287 262 269 275 q 250 289 215 305 q 117 349 95 380 q 74 413 74 458 q 74 509 99 542 q 124 576 187 586 l 187 702 l 295 702 l 295 586 q 352 579 380 546 q 408 514 408 457 l 408 434 l 284 434 l 284 451 q 284 510 244 510 q 203 510 203 467 q 203 444 212 432 q 222 420 248 408 l 291 388 q 356 355 377 335 q 399 316 406 296 q 416 271 416 238 q 416 172 387 142 q 358 113 295 100 l 295 -31 l 187 -31 l 187 100 q 123 109 98 144 q 72 179 72 232 z"},"?":{"x_min":0,"x_max":442,"ha":442,"o":"m 146 126 l 272 126 l 272 0 l 146 0 z m 48 515 l 48 560 q 48 625 90 657 q 132 689 212 689 l 223 689 q 308 689 343 649 q 378 609 378 545 q 378 475 341 415 q 304 356 297 345 q 286 328 271 304 q 258 280 258 242 l 258 191 l 155 191 l 155 265 q 155 321 173 356 q 191 391 220 439 q 251 494 251 542 q 251 577 242 591 q 233 605 214 605 q 194 605 184 593 q 175 582 175 558 l 175 515 z"},"<":{"x_min":0,"x_max":996,"ha":996,"o":""},"'":{"x_min":0,"x_max":221,"ha":221,"o":"m 43 682 l 170 682 l 151 457 l 62 457 z"},"=":{"x_min":0,"x_max":664,"ha":664,"o":"m 102 213 l 552 213 l 552 142 l 102 142 z m 102 372 l 552 372 l 552 300 l 102 300 z"},"a":{"x_min":0,"x_max":442,"ha":442,"o":"m 51 341 l 51 353 q 51 422 93 454 q 135 486 220 486 q 391 486 391 343 l 391 294 l 391 0 l 267 0 l 267 43 q 240 14 213 3 q 187 -7 153 -7 q 95 -7 67 28 q 40 63 40 136 q 40 233 83 267 q 126 302 228 302 l 265 302 l 265 343 q 265 380 254 391 q 244 402 223 402 q 201 402 189 392 q 177 382 177 358 l 177 341 z m 265 228 l 250 228 l 234 228 q 196 228 181 205 q 166 181 166 142 q 166 77 209 77 q 231 77 248 96 q 265 115 265 184 z m 225 537 l 225 537 z m 281 0 l 281 0 z"},"L":{"x_min":0,"x_max":424,"ha":424,"o":"m 70 682 l 209 682 l 209 103 l 391 103 l 391 0 l 70 0 z m 154 740 l 154 740 z m 235 0 l 235 0 z m 0 689 l 0 689 z"},"3":{"x_min":0,"x_max":479,"ha":479,"o":"m 56 188 l 185 188 l 185 188 l 185 150 q 185 86 236 86 q 264 86 277 102 q 290 118 290 180 l 290 186 l 290 216 q 290 276 273 292 q 257 309 217 309 l 172 309 l 172 309 l 172 402 l 172 402 l 196 402 q 246 402 268 415 q 290 428 290 468 l 290 493 l 290 541 q 290 573 277 584 q 264 596 240 596 l 235 596 q 216 596 204 583 q 191 571 191 528 l 191 515 l 62 515 l 62 536 q 62 622 106 655 q 150 689 239 689 q 348 689 383 647 q 419 606 419 519 l 419 504 q 419 435 400 403 q 382 372 331 357 q 376 347 397 317 q 419 287 419 224 l 419 213 l 419 157 q 419 59 367 25 q 315 -7 237 -7 q 145 -7 100 29 q 56 66 56 147 l 56 188 z"},";":{"x_min":0,"x_max":221,"ha":221,"o":""},"J":{"x_min":0,"x_max":479,"ha":479,"o":"m 31 232 l 170 232 l 170 181 q 170 128 184 112 q 197 96 221 96 q 247 96 258 112 q 270 129 270 172 l 270 226 l 270 682 l 410 682 l 410 227 l 410 185 q 410 74 358 33 q 307 -7 213 -7 q 109 -7 70 42 q 31 92 31 176 z"},"V":{"x_min":0,"x_max":516,"ha":516,"o":"m 259 155 l 259 155 l 356 682 l 492 682 l 339 0 l 174 0 l 29 682 l 168 682 z"},"\"":{"x_min":0,"x_max":406,"ha":406,"o":""},"7":{"x_min":0,"x_max":479,"ha":479,"o":"m 101 0 l 287 582 l 287 582 l 51 582 l 51 682 l 414 682 l 414 581 l 244 0 z"},"S":{"x_min":0,"x_max":535,"ha":535,"o":"m 51 218 l 190 218 l 190 218 l 190 197 q 190 133 210 114 q 230 96 263 96 q 303 96 321 118 q 339 141 339 182 q 339 216 318 235 q 296 255 259 276 l 180 322 q 137 349 98 385 q 58 421 58 501 q 58 594 111 642 q 165 689 270 689 q 383 689 427 644 q 472 598 472 512 l 472 472 l 472 472 l 332 472 l 332 472 l 332 499 q 332 551 315 569 q 298 586 266 586 q 233 586 215 567 q 198 548 198 512 q 198 469 233 443 q 268 418 341 376 q 422 331 450 293 q 479 257 479 188 q 479 85 424 39 q 369 -7 260 -7 q 150 -7 100 37 q 51 81 51 181 l 51 218 z m 270 740 l 270 740 z m 250 0 l 250 0 z"},"}":{"x_min":0,"x_max":498,"ha":498,"o":""},"Z":{"x_min":0,"x_max":461,"ha":461,"o":"m 33 0 l 33 128 l 290 579 l 290 579 l 42 579 l 42 682 l 425 682 l 425 554 l 168 103 l 168 103 l 431 103 l 431 0 z m 239 740 l 239 740 z m 0 689 l 0 689 z"},"x":{"x_min":0,"x_max":442,"ha":442,"o":"m 25 0 l 148 247 l 148 247 l 37 479 l 163 479 l 226 337 l 226 337 l 295 479 l 417 479 l 294 247 l 294 247 l 417 0 l 295 0 l 226 153 l 226 153 l 147 0 z"},")":{"x_min":0,"x_max":221,"ha":221,"o":"m 109 682 q 187 475 187 300 q 187 129 111 -93 l 23 -93 q 89 114 89 300 q 89 483 23 682 z"},"&":{"x_min":0,"x_max":627,"ha":627,"o":"m 163 376 l 163 376 q 87 462 87 542 q 87 606 134 647 q 181 689 271 689 l 271 689 q 353 689 396 650 q 440 611 440 554 q 440 450 310 376 l 310 376 l 433 209 l 433 209 q 442 238 442 302 l 442 376 l 546 376 l 546 288 q 546 198 501 127 l 501 127 l 597 0 l 453 0 l 421 45 l 421 45 q 354 -7 259 -7 q 156 -7 99 47 q 42 102 42 189 q 42 312 163 376 z m 219 300 l 219 300 q 162 260 162 197 q 162 146 196 112 q 231 80 281 80 q 319 80 366 113 l 366 113 z m 260 444 l 260 444 q 320 490 320 542 q 320 568 304 585 q 288 603 265 603 q 242 603 225 586 q 208 570 208 542 q 208 497 260 444 z"},"_":{"x_min":0,"x_max":498,"ha":498,"o":"m 0 -195 l 498 -195 l 498 -247 l 0 -247 z"},"v":{"x_min":0,"x_max":442,"ha":442,"o":"m 222 108 l 222 108 l 295 479 l 421 479 l 305 0 l 138 0 l 29 479 l 155 479 z"},"O":{"x_min":0,"x_max":553,"ha":553,"o":"m 61 257 l 61 501 q 61 603 119 646 q 177 689 276 689 q 374 689 432 647 q 491 604 491 498 l 491 257 l 491 223 q 491 87 437 40 q 382 -7 276 -7 q 170 -7 115 39 q 61 85 61 215 z m 201 257 l 201 220 q 201 158 217 127 q 233 96 276 96 q 318 96 334 125 q 352 156 352 218 l 352 257 l 352 450 q 352 535 332 561 q 312 586 276 586 q 237 586 219 558 q 201 530 201 455 z m 276 740 l 276 740 z"},"(":{"x_min":0,"x_max":221,"ha":221,"o":""},"C":{"x_min":0,"x_max":516,"ha":516,"o":"m 338 239 l 478 239 l 478 205 q 478 95 430 43 q 383 -7 273 -7 q 162 -7 108 43 q 55 95 55 240 l 55 287 l 55 474 q 55 598 111 644 q 168 689 267 689 q 367 689 418 645 q 470 601 470 500 l 470 464 l 470 464 l 331 464 l 331 464 q 331 543 314 564 q 299 586 268 586 q 225 586 209 553 q 194 521 194 435 l 194 291 q 194 154 212 125 q 231 96 268 96 q 305 96 321 121 q 338 146 338 216 z m 266 740 l 266 740 z m 251 0 l 251 0 z"},"W":{"x_min":0,"x_max":774,"ha":774,"o":"m 29 682 l 155 682 l 230 160 l 230 160 l 319 682 l 463 682 l 551 160 l 551 160 l 622 682 l 739 682 l 630 0 l 469 0 l 385 496 l 385 496 l 306 0 l 145 0 z"},"A":{"x_min":0,"x_max":553,"ha":553,"o":"m 28 0 l 195 682 l 363 682 l 530 0 l 393 0 l 362 149 l 362 149 l 196 149 l 196 149 l 166 0 z m 217 252 l 217 252 l 341 252 l 341 252 l 279 557 l 279 557 z m 279 740 l 279 740 z m 407 0 l 407 0 z m 0 689 l 0 689 z"},"f":{"x_min":0,"x_max":313,"ha":313,"o":"m 21 479 l 87 479 l 87 562 q 87 646 118 670 q 149 695 201 695 l 212 695 q 246 695 286 691 l 286 610 l 261 610 l 258 610 q 231 610 222 598 q 213 586 213 548 l 213 479 l 286 479 l 286 395 l 213 395 l 213 0 l 87 0 l 87 395 l 21 395 z"},"Q":{"x_min":0,"x_max":572,"ha":572,"o":"m 432 83 l 432 83 l 539 90 l 539 -3 l 447 -3 q 417 -3 381 -5 q 346 -7 280 -7 q 169 -7 117 34 q 65 76 65 211 l 65 290 l 65 479 q 65 596 119 643 q 173 689 281 689 q 391 689 443 644 q 496 598 496 478 l 496 405 l 496 260 q 496 204 484 161 q 473 119 432 83 z m 205 276 l 205 215 q 205 139 227 117 q 248 96 279 96 q 312 96 333 122 q 356 147 356 276 l 356 457 q 356 530 339 558 q 322 586 285 586 q 245 586 225 557 q 205 527 205 437 z"},"w":{"x_min":0,"x_max":701,"ha":701,"o":"m 23 479 l 149 479 l 202 118 l 202 118 l 270 479 l 429 479 l 501 112 l 501 112 l 552 479 l 676 479 l 582 0 l 424 0 l 353 363 l 353 363 l 275 0 l 118 0 z"},"-":{"x_min":0,"x_max":221,"ha":221,"o":"m 36 322 l 181 322 l 181 229 l 36 229 z"},"E":{"x_min":0,"x_max":461,"ha":461,"o":"m 67 0 l 67 682 l 410 682 l 410 579 l 207 579 l 207 401 l 404 401 l 404 298 l 207 298 l 207 103 l 417 103 l 417 0 z m 252 740 l 252 740 z m 295 0 l 295 0 z m 0 689 l 0 689 z"},"s":{"x_min":0,"x_max":406,"ha":406,"o":"m 32 160 l 158 160 l 158 160 l 158 129 q 158 90 172 78 q 187 66 204 66 q 225 66 239 80 q 254 94 254 121 q 254 157 226 174 q 198 192 158 211 q 73 250 55 280 q 36 309 36 352 q 36 420 79 453 q 122 486 205 486 q 291 486 330 454 q 370 421 370 360 l 370 334 l 370 334 l 244 334 l 244 334 l 244 361 q 244 413 206 413 q 180 413 171 398 q 162 384 162 368 q 162 341 182 325 q 202 310 241 292 q 339 247 359 214 q 380 182 380 136 q 380 65 335 29 q 292 -7 205 -7 q 110 -7 71 29 q 32 65 32 124 l 32 160 z m 205 537 l 205 537 z m 205 0 l 205 0 z"},">":{"x_min":0,"x_max":996,"ha":996,"o":"m 200 609 l 795 340 l 795 267 l 200 -1 l 200 96 l 670 304 l 670 304 l 200 512 z"},"l":{"x_min":0,"x_max":240,"ha":240,"o":"m 59 0 l 59 689 l 185 689 l 185 0 z m 125 740 l 125 740 z m 122 0 l 122 0 z"},"8":{"x_min":0,"x_max":479,"ha":479,"o":"m 149 359 q 97 370 75 400 q 54 431 54 480 l 54 492 l 54 535 q 54 622 102 656 q 149 689 238 689 q 348 689 385 646 q 422 604 422 530 l 422 487 l 422 480 q 422 425 400 397 q 377 369 332 359 q 378 353 400 320 q 422 288 422 229 l 422 167 l 422 153 q 422 61 375 26 q 328 -7 244 -7 q 133 -7 94 33 q 54 73 54 159 l 54 167 q 54 182 54 208 q 54 297 83 326 q 112 354 149 359 z m 183 175 l 183 155 q 183 111 195 99 q 207 86 239 86 q 267 86 280 99 q 293 112 293 144 l 293 175 q 293 206 293 222 q 293 271 285 292 q 277 312 244 312 l 236 312 q 209 312 196 299 q 183 287 183 243 z m 183 488 l 183 484 q 183 431 196 418 q 208 406 240 406 q 265 406 278 416 q 291 427 292 451 q 293 472 293 488 l 293 535 q 293 576 278 586 q 263 596 242 596 l 238 596 q 213 596 198 585 q 183 575 183 533 z"},"\\":{"x_min":0,"x_max":221,"ha":221,"o":"m 117 -94 l 31 682 l 120 682 l 206 -94 z"},"e":{"x_min":0,"x_max":424,"ha":424,"o":"m 164 214 l 164 214 l 164 146 q 164 103 178 90 q 192 77 215 77 q 245 77 257 95 q 270 113 270 159 l 270 167 l 396 167 l 396 150 q 396 59 345 26 q 295 -7 215 -7 q 128 -7 83 29 q 38 65 38 178 l 38 295 q 38 399 79 443 q 120 486 214 486 q 315 486 355 445 q 396 404 396 283 l 396 214 l 396 214 z m 164 288 l 270 288 l 270 288 l 270 345 q 270 370 257 386 q 244 402 217 402 q 188 402 175 388 q 164 375 164 344 z m 218 537 l 218 537 z m 248 0 l 248 0 z"},"b":{"x_min":0,"x_max":442,"ha":442,"o":"m 47 0 l 47 689 l 173 689 l 173 436 q 222 486 283 486 q 338 486 368 452 q 398 418 398 313 l 398 292 l 398 142 q 398 -7 275 -7 q 242 -7 218 2 q 194 13 169 36 l 169 0 z m 173 284 l 173 166 q 173 77 224 77 q 252 77 262 101 q 272 124 272 181 l 272 321 q 272 402 226 402 q 196 402 185 373 q 173 344 173 284 z"},"%":{"x_min":0,"x_max":664,"ha":664,"o":"m 130 -39 l 455 704 l 529 704 l 205 -39 z m 405 135 l 405 261 q 405 315 428 342 q 450 369 518 369 q 582 369 606 341 q 631 314 631 262 l 631 135 l 631 117 q 631 42 602 18 q 573 -7 520 -7 q 458 -7 432 18 q 405 43 405 112 z m 486 134 l 486 99 q 486 49 518 49 q 550 49 550 98 l 550 134 l 550 261 q 550 312 518 312 q 486 312 486 260 z m 36 456 l 36 583 q 36 632 57 661 q 77 689 149 689 q 221 689 241 661 q 262 632 262 577 l 262 456 q 262 397 255 377 q 237 313 151 313 q 87 313 62 340 q 36 366 36 428 z m 117 455 l 117 419 q 117 370 149 370 q 180 370 181 417 l 181 455 q 181 455 181 584 q 181 633 149 633 q 117 633 117 583 z"},"m":{"x_min":0,"x_max":664,"ha":664,"o":"m 55 479 l 171 479 l 171 428 q 208 486 287 486 q 320 486 348 474 q 375 461 395 421 q 425 486 510 486 q 572 486 602 452 q 631 418 631 333 l 631 310 l 631 0 l 505 0 l 505 312 l 505 328 q 505 374 493 388 q 480 402 460 402 q 436 402 421 384 q 406 366 406 322 l 406 312 l 406 0 l 280 0 l 280 312 l 280 320 q 280 373 267 387 q 254 402 234 402 q 206 402 193 379 q 181 357 181 312 l 181 0 l 55 0 z"},"#":{"x_min":0,"x_max":479,"ha":479,"o":"m -12 181 l 15 267 l 79 267 l 79 267 l 131 426 l 131 426 l 61 426 l 84 512 l 159 512 l 159 512 l 214 682 l 214 682 l 214 682 l 304 682 l 249 512 l 249 512 l 341 512 l 341 512 l 396 682 l 486 682 l 431 512 l 431 512 l 498 512 l 474 426 l 403 426 l 403 426 l 354 274 l 354 267 l 425 267 l 399 181 l 325 181 l 325 181 l 266 0 l 174 0 l 234 181 l 234 181 l 142 181 l 142 181 l 83 0 l 83 0 l 83 0 l -8 0 l -8 0 l 51 181 l 51 181 z m 172 274 l 172 267 l 262 267 l 262 267 l 313 426 l 313 426 l 221 426 l 221 426 z"},",":{"x_min":0,"x_max":221,"ha":221,"o":"m 36 -110 l 63 115 l 188 115 l 124 -110 z"},"n":{"x_min":0,"x_max":461,"ha":461,"o":"m 59 0 l 59 479 l 183 479 l 183 428 q 228 486 297 486 q 349 486 379 456 q 410 426 410 357 l 410 308 l 410 0 l 284 0 l 284 309 l 284 345 q 284 402 240 402 q 212 402 199 379 q 185 357 185 309 l 185 0 z m 235 537 l 235 537 z m 235 0 l 235 0 z"},"h":{"x_min":0,"x_max":461,"ha":461,"o":"m 61 689 l 187 689 l 187 436 q 232 486 295 486 q 348 486 380 451 q 412 417 412 338 l 412 0 l 286 0 l 286 323 q 286 402 243 402 q 215 402 201 379 q 187 356 187 300 l 187 0 l 61 0 z"},"z":{"x_min":0,"x_max":369,"ha":369,"o":"m 33 0 l 33 110 l 208 393 l 208 393 l 47 393 l 47 479 l 331 479 l 331 378 l 157 86 l 157 86 l 334 86 l 334 0 z m 194 537 l 194 537 z m 0 486 l 0 486 z"},"B":{"x_min":0,"x_max":535,"ha":535,"o":"m 65 0 l 65 682 l 267 682 l 317 682 q 407 682 444 636 q 481 589 481 504 q 481 425 445 393 q 409 360 361 353 q 433 343 461 305 q 490 266 490 191 q 490 78 441 39 q 394 0 289 0 l 250 0 z m 205 103 l 240 103 q 307 103 328 122 q 350 142 350 199 q 350 250 332 276 q 313 302 270 302 l 240 302 l 205 302 z m 205 405 l 233 405 q 301 405 321 426 q 341 447 341 492 q 341 535 323 557 q 304 579 258 579 l 249 579 l 205 579 z"},"K":{"x_min":0,"x_max":535,"ha":535,"o":"m 70 682 l 209 682 l 209 0 l 70 0 z m 209 368 l 364 682 l 514 682 l 360 378 l 519 0 l 366 0 z m 278 0 l 278 0 z"},"R":{"x_min":0,"x_max":516,"ha":516,"o":"m 61 0 l 61 682 l 255 682 l 278 682 q 388 682 429 635 q 469 588 469 504 q 469 431 445 391 q 420 351 360 336 q 429 322 450 284 q 470 246 470 189 l 470 77 q 470 38 480 0 l 340 0 q 332 54 332 90 l 332 190 q 332 240 312 260 q 292 281 243 281 l 201 281 l 201 0 z m 201 384 l 243 384 q 287 384 308 404 q 330 425 330 480 q 330 534 312 556 q 295 579 243 579 l 201 579 z m 255 740 l 255 740 z m 278 0 l 278 0 z m 0 689 l 0 689 z"},"T":{"x_min":0,"x_max":498,"ha":498,"o":"m 29 682 l 474 682 l 474 579 l 321 579 l 321 0 l 182 0 l 182 579 l 29 579 z m 251 740 l 251 740 z m 238 0 l 238 0 z m 0 689 l 0 689 z"},"P":{"x_min":0,"x_max":516,"ha":516,"o":"m 63 682 l 201 682 l 292 682 q 391 682 435 636 q 479 590 479 484 q 479 355 426 314 q 374 273 250 273 l 203 273 l 203 0 l 63 0 z m 203 579 l 203 376 l 240 376 q 296 376 317 394 q 339 411 339 476 q 339 537 320 558 q 301 579 240 579 z"},"|":{"x_min":0,"x_max":498,"ha":498,"o":"m 225 748 l 276 748 l 276 -247 l 225 -247 z"},"t":{"x_min":0,"x_max":313,"ha":313,"o":"m 20 395 l 20 479 l 86 479 l 86 557 l 212 610 l 212 479 l 285 479 l 285 395 l 212 395 l 212 124 l 212 117 q 212 77 252 77 l 255 77 q 269 77 293 81 l 293 -2 q 254 -7 217 -7 q 152 -7 119 19 q 86 45 86 105 l 86 112 l 86 395 z m 177 0 l 177 0 z"},"M":{"x_min":0,"x_max":738,"ha":738,"o":"m 61 682 l 259 682 l 370 168 l 370 168 l 481 682 l 679 682 l 679 0 l 563 0 l 563 583 l 563 583 l 440 0 l 300 0 l 177 583 l 177 583 l 177 0 l 61 0 z"},"g":{"x_min":0,"x_max":442,"ha":442,"o":"m 45 -34 l 171 -34 l 171 -47 q 171 -73 184 -84 q 196 -95 218 -95 q 251 -95 261 -75 q 271 -55 271 8 l 271 59 q 230 7 162 7 q 102 7 74 44 q 45 81 45 165 l 45 181 l 45 323 q 45 415 79 450 q 113 486 170 486 q 207 486 231 472 q 256 458 278 431 l 278 479 l 396 479 l 396 -7 q 396 -111 349 -145 q 302 -179 213 -179 q 127 -179 86 -151 q 45 -122 45 -53 z m 171 184 l 171 180 q 171 126 184 109 q 196 92 218 92 q 243 92 257 114 q 271 137 271 184 l 271 302 q 271 356 258 379 q 247 402 221 402 q 198 402 185 383 q 171 364 171 304 z m 221 537 l 221 537 z"},"j":{"x_min":0,"x_max":240,"ha":240,"o":"m 57 -33 l 57 479 l 183 479 l 183 -38 l 183 -52 q 183 -133 152 -159 q 122 -186 61 -186 q 27 -186 -6 -183 l -6 -101 l 3 -101 q 37 -101 47 -84 q 57 -68 57 -33 z m 57 691 l 183 691 l 183 573 l 57 573 z"},"i":{"x_min":0,"x_max":240,"ha":240,"o":"m 57 479 l 183 479 l 183 0 l 57 0 z m 57 691 l 183 691 l 183 573 l 57 573 z m 119 0 l 119 0 z"},"y":{"x_min":0,"x_max":442,"ha":442,"o":"m 25 479 l 151 479 l 222 183 l 222 183 l 292 479 l 417 479 l 244 -174 l 124 -174 l 167 2 l 167 2 z m 222 537 l 222 537 z m 0 486 l 0 486 z"},"@":{"x_min":0,"x_max":664,"ha":664,"o":"m 475 488 l 475 197 q 475 169 479 159 q 483 149 495 149 q 510 149 518 159 q 525 168 525 196 l 525 432 q 525 612 340 612 q 134 612 134 426 l 134 171 q 134 47 181 5 q 228 -37 322 -37 q 359 -37 392 -31 q 426 -25 475 -12 l 475 -106 q 398 -123 316 -123 q 151 -123 90 -50 q 29 22 29 168 l 29 428 q 29 697 333 697 q 479 697 553 641 q 627 585 627 396 l 627 230 q 627 130 595 97 q 562 65 499 65 q 459 65 434 79 q 409 93 401 125 l 401 125 q 375 86 353 77 q 330 68 298 68 q 242 68 213 101 q 185 134 185 220 l 185 349 q 185 496 286 496 q 341 496 375 446 l 375 488 z m 290 220 q 290 177 298 165 q 308 152 326 152 q 353 152 361 168 q 370 185 370 220 l 370 349 q 370 411 329 411 q 291 411 290 356 q 290 302 290 220 z"},".":{"x_min":0,"x_max":221,"ha":221,"o":"m 48 126 l 175 126 l 175 0 l 48 0 z"},"p":{"x_min":0,"x_max":442,"ha":442,"o":"m 169 436 q 214 486 271 486 l 275 486 q 336 486 367 451 q 398 416 398 327 l 398 307 l 398 156 q 398 54 364 23 q 331 -7 283 -7 q 221 -7 173 36 l 173 -174 l 47 -174 l 47 479 l 169 479 z m 173 293 l 173 176 q 173 119 187 98 q 200 77 226 77 q 248 77 260 95 q 272 113 272 184 l 272 191 l 272 312 q 272 346 264 374 q 256 402 225 402 q 195 402 184 375 q 173 347 173 293 z"},"X":{"x_min":0,"x_max":553,"ha":553,"o":"m 35 0 l 194 354 l 194 354 l 50 682 l 194 682 l 282 464 l 282 464 l 369 682 l 506 682 l 359 357 l 359 357 l 515 0 l 377 0 l 276 240 l 276 240 l 172 0 z"},"*":{"x_min":0,"x_max":479,"ha":479,"o":"m 87 573 l 203 559 l 135 648 l 205 689 l 246 588 l 246 588 l 287 689 l 357 648 l 289 559 l 405 573 l 405 491 l 289 505 l 357 416 l 287 375 l 246 476 l 246 476 l 205 375 l 135 416 l 203 505 l 87 491 z"},"Y":{"x_min":0,"x_max":516,"ha":516,"o":"m 21 682 l 174 682 l 258 405 l 258 405 l 344 682 l 488 682 l 328 256 l 328 0 l 188 0 l 188 256 z m 255 740 l 255 740 z m 0 689 l 0 689 z"},"c":{"x_min":0,"x_max":406,"ha":406,"o":"m 241 181 l 367 181 l 367 141 q 367 60 319 26 q 272 -7 198 -7 q 162 -7 129 1 q 97 9 69 39 q 38 73 38 180 l 38 324 q 38 402 78 444 q 118 486 208 486 q 293 486 330 444 q 367 402 367 319 l 367 305 l 367 305 l 241 305 l 241 305 l 241 333 q 241 378 230 390 q 220 402 201 402 q 187 402 175 391 q 164 380 164 321 l 164 181 q 164 155 166 116 q 168 77 199 77 l 203 77 q 216 77 228 86 q 241 95 241 144 z m 208 537 l 208 537 z m 202 0 l 202 0 z"},"!":{"x_min":0,"x_max":295,"ha":295,"o":"m 104 189 l 90 682 l 90 682 l 217 682 l 217 682 l 203 189 z m 90 0 l 90 126 l 217 126 l 217 0 z"},"/":{"x_min":0,"x_max":221,"ha":221,"o":"m 30 -92 l 117 682 l 204 682 l 117 -92 z"},"[":{"x_min":0,"x_max":221,"ha":221,"o":""},"6":{"x_min":0,"x_max":479,"ha":479,"o":"m 185 395 q 232 434 291 434 q 395 434 416 347 q 424 312 424 198 l 424 176 q 424 73 378 33 q 332 -7 240 -7 q 137 -7 97 37 q 56 82 56 205 l 56 494 q 56 610 106 649 q 157 689 248 689 q 338 689 379 652 q 420 614 420 535 l 420 515 l 292 515 l 292 525 q 291 596 244 596 q 190 596 187 550 q 185 514 185 395 z m 185 196 l 185 156 q 185 114 199 100 q 214 86 245 86 q 269 86 282 97 q 295 109 295 147 l 295 196 l 295 284 q 295 317 283 329 q 270 341 243 341 q 214 341 199 327 q 185 312 185 271 z"},"r":{"x_min":0,"x_max":332,"ha":332,"o":"m 57 0 l 57 479 l 183 479 l 183 413 q 204 457 233 471 q 263 486 307 486 l 307 486 l 307 377 q 291 379 285 379 q 280 379 275 379 q 222 379 203 353 q 183 327 183 256 l 183 0 z m 182 537 l 182 537 z m 117 0 l 117 0 z"},"2":{"x_min":0,"x_max":479,"ha":479,"o":"m 61 116 q 77 136 135 213 q 194 290 240 366 q 275 422 285 452 q 294 482 294 529 q 294 565 282 581 q 270 596 243 596 q 193 596 193 543 l 193 486 l 193 486 l 64 486 l 64 486 l 64 530 q 64 611 108 650 q 152 689 248 689 q 335 689 379 652 q 423 616 423 520 q 423 459 411 418 q 398 377 365 325 q 351 303 296 231 q 267 193 242 166 q 218 138 183 100 l 183 100 l 429 100 l 429 0 l 61 0 z"},"{":{"x_min":0,"x_max":498,"ha":498,"o":""},"9":{"x_min":0,"x_max":479,"ha":479,"o":"m 56 181 l 185 181 l 185 136 q 185 86 240 86 q 279 86 287 111 q 295 136 295 179 l 295 284 q 261 248 186 248 q 117 248 86 288 q 56 327 56 426 l 56 484 q 56 612 104 650 q 152 689 243 689 q 351 689 387 642 q 424 595 424 507 l 424 188 q 424 81 381 37 q 337 -7 236 -7 q 130 -7 93 34 q 56 75 56 147 z m 185 426 l 185 412 q 185 370 198 355 q 212 341 239 341 q 271 341 283 360 q 295 379 295 426 l 295 520 q 295 562 285 579 q 274 596 239 596 q 206 596 195 576 q 185 556 185 515 z"}," ":{"x_min":0,"x_max":221,"ha":221,"o":""},"I":{"x_min":0,"x_max":258,"ha":258,"o":"m 61 682 l 201 682 l 201 0 l 61 0 z m 131 740 l 131 740 z m 131 0 l 131 0 z m 0 689 l 0 689 z"},"H":{"x_min":0,"x_max":553,"ha":553,"o":"m 70 682 l 209 682 l 209 405 l 346 405 l 346 682 l 485 682 l 485 0 l 346 0 l 346 302 l 209 302 l 209 0 l 70 0 z"},"4":{"x_min":0,"x_max":479,"ha":479,"o":"m 32 284 l 205 682 l 388 682 l 388 242 l 462 242 l 462 149 l 388 149 l 388 0 l 259 0 l 259 149 l 32 149 z m 123 242 l 123 242 l 259 242 l 259 562 l 259 562 z"},"~":{"x_min":0,"x_max":996,"ha":996,"o":"m 203 263 q 249 332 288 354 q 328 377 372 377 q 424 377 474 361 q 507 351 580 332 q 652 312 688 312 q 718 312 746 328 q 774 345 803 377 l 819 343 q 802 288 756 254 q 709 221 660 221 q 631 221 582 231 q 532 242 430 272 q 380 287 344 287 q 316 287 283 272 q 251 257 218 229 z"},"D":{"x_min":0,"x_max":553,"ha":553,"o":"m 70 0 l 70 682 l 251 682 l 271 682 q 391 682 445 628 q 500 574 500 427 l 500 256 q 500 104 447 52 q 395 0 278 0 l 251 0 z m 209 103 l 247 103 q 310 103 335 130 q 360 158 360 233 l 360 255 l 360 434 q 360 513 338 546 q 316 579 241 579 l 209 579 z m 285 740 l 285 740 z m 0 689 l 0 689 z"},"^":{"x_min":0,"x_max":498,"ha":498,"o":"m 256 605 l 256 605 q 169 523 56 484 l 56 530 q 184 617 230 748 l 282 748 q 333 620 456 530 l 456 484 q 347 520 256 605 z"},"0":{"x_min":0,"x_max":479,"ha":479,"o":"m 52 219 l 52 522 q 52 603 95 646 q 139 689 235 689 q 341 689 384 646 q 428 603 428 503 l 428 219 l 428 181 q 428 72 381 32 q 334 -7 245 -7 q 144 -7 98 33 q 52 73 52 173 z m 181 217 l 181 170 q 181 121 195 103 q 209 86 243 86 q 269 86 284 103 q 299 120 299 170 l 299 217 l 299 516 q 299 563 284 580 q 269 596 237 596 q 214 596 197 581 q 181 566 181 512 z"},"F":{"x_min":0,"x_max":442,"ha":442,"o":"m 65 0 l 65 682 l 394 682 l 394 579 l 205 579 l 205 394 l 383 394 l 383 291 l 205 291 l 205 0 z"},"`":{"x_min":0,"x_max":479,"ha":479,"o":"m 218 537 l 131 689 l 275 689 l 327 537 z m 252 537 l 252 537 z"},"k":{"x_min":0,"x_max":442,"ha":442,"o":"m 57 689 l 183 689 l 183 0 l 57 0 z m 183 264 l 274 479 l 408 479 l 315 271 l 414 0 l 280 0 z m 217 0 l 217 0 z"},"u":{"x_min":0,"x_max":461,"ha":461,"o":"m 59 479 l 185 479 l 185 157 l 185 147 q 185 104 198 91 q 210 77 231 77 q 255 77 270 97 q 284 117 284 157 l 284 479 l 410 479 l 410 0 l 292 0 l 292 51 q 239 -7 176 -7 q 126 -7 92 24 q 59 57 59 118 l 59 127 z m 235 537 l 235 537 z m 300 0 l 300 0 z m 0 486 l 0 486 z"},"]":{"x_min":0,"x_max":221,"ha":221,"o":"m 177 -93 l 33 -93 l 33 -26 l 76 -26 l 76 615 l 33 615 l 33 682 l 177 682 z"},"U":{"x_min":0,"x_max":553,"ha":553,"o":"m 63 682 l 203 682 l 203 238 l 203 200 q 203 130 224 113 q 246 96 272 96 q 308 96 327 115 q 346 134 346 194 l 346 238 l 346 682 l 486 682 l 486 240 l 486 218 q 486 83 430 38 q 374 -7 278 -7 q 163 -7 113 42 q 63 93 63 213 l 63 240 z m 273 740 l 273 740 z m 304 0 l 304 0 z m 0 689 l 0 689 z"},"o":{"x_min":0,"x_max":442,"ha":442,"o":"m 45 197 l 45 309 q 45 412 92 449 q 138 486 218 486 l 228 486 q 301 486 349 450 q 396 414 396 309 l 396 197 l 396 159 q 396 66 348 29 q 300 -7 224 -7 q 128 -7 86 34 q 45 76 45 162 z m 171 160 l 171 157 q 171 106 185 92 q 199 77 218 77 l 221 77 q 246 77 258 93 q 271 108 271 154 l 271 160 l 271 321 q 271 367 259 384 q 248 402 219 402 q 195 402 183 385 q 171 368 171 322 z m 221 537 l 221 537 z"},"N":{"x_min":0,"x_max":572,"ha":572,"o":"m 72 682 l 274 682 l 398 117 l 398 117 l 398 682 l 514 682 l 514 0 l 312 0 l 188 562 l 188 562 l 188 0 l 72 0 z m 303 740 l 303 740 z m 293 0 l 293 0 z m 0 689 l 0 689 z"},"+":{"x_min":0,"x_max":664,"ha":664,"o":"m 102 292 l 290 292 l 290 480 l 361 480 l 361 292 l 550 292 l 550 220 l 361 220 l 361 32 l 290 32 l 290 220 l 102 220 z"},"G":{"x_min":0,"x_max":553,"ha":553,"o":"m 288 259 l 288 362 l 491 362 l 491 19 q 367 -7 274 -7 q 172 -7 116 39 q 61 86 61 239 l 61 295 l 61 444 q 61 567 111 628 q 162 689 286 689 q 403 689 447 640 q 491 590 491 500 l 491 472 l 352 472 l 352 501 q 352 545 333 565 q 314 586 280 586 q 243 586 222 561 q 201 536 201 433 l 201 295 l 201 252 q 201 147 222 122 q 243 96 286 96 q 318 96 352 107 l 352 259 z m 285 740 l 285 740 z m 298 0 l 298 0 z"},"q":{"x_min":0,"x_max":442,"ha":442,"o":"m 276 436 l 276 479 l 398 479 l 398 -174 l 272 -174 l 272 36 q 235 7 213 0 q 190 -7 163 -7 q 106 -7 77 25 q 47 58 47 159 l 47 178 l 47 326 q 47 416 79 451 q 110 486 170 486 q 204 486 229 475 q 254 464 276 436 z m 173 296 l 173 161 q 173 77 221 77 q 247 77 259 100 q 272 123 272 186 l 272 306 q 272 402 223 402 q 195 402 184 379 q 173 357 173 296 z"},"d":{"x_min":0,"x_max":442,"ha":442,"o":"m 272 443 l 272 689 l 398 689 l 398 0 l 278 0 l 278 51 q 238 -7 172 -7 q 112 -7 80 28 q 47 63 47 164 l 47 186 l 47 334 q 47 411 76 449 q 105 486 162 486 q 226 486 272 443 z m 173 299 l 173 159 q 173 77 223 77 q 251 77 262 102 q 272 127 272 194 l 272 310 q 272 402 220 402 q 194 402 184 381 q 173 361 173 299 z"},"1":{"x_min":0,"x_max":479,"ha":479,"o":"m 109 575 q 156 606 179 630 q 201 655 211 682 l 332 682 l 332 0 l 203 0 l 203 540 q 160 485 109 464 z"},"5":{"x_min":0,"x_max":479,"ha":479,"o":"m 61 174 l 189 174 l 189 174 q 189 136 193 117 q 200 86 241 86 q 278 86 289 105 q 300 125 300 178 l 300 277 q 300 331 288 346 q 277 361 249 361 q 222 361 207 345 q 191 330 191 266 l 62 266 l 68 682 l 411 682 l 411 582 l 189 582 l 189 582 l 189 414 q 217 440 242 447 q 267 455 297 455 q 361 455 395 420 q 429 386 429 305 l 429 175 q 429 68 383 30 q 338 -7 248 -7 q 168 -7 130 10 q 100 24 80 54 q 61 84 61 154 z"}}}
